{
  "accessors": [
    {
      "bufferView": 0,
      "componentType": 5125,
      "count": 2399688,
      "type": "SCALAR"
    },
    {
      "bufferView": 1,
      "componentType": 5126,
      "count": 412700,
      "max": [
        10.8476181030273,
        3.91888236999512,
        5.2321834564209
      ],
      "min": [
        -10.6778554916382,
        -6.19866847991943,
        -2.14082217216492
      ],
      "type": "VEC3"
    },
    {
      "bufferView": 2,
      "componentType": 5126,
      "count": 412700,
      "type": "VEC3"
    },
    {
      "bufferView": 3,
      "componentType": 5126,
      "count": 412700,
      "type": "VEC4"
    },
    {
      "bufferView": 4,
      "componentType": 5126,
      "count": 412700,
      "type": "VEC2"
    }
  ],
  "asset": {
    "generator": "Adobe Substance 3D Painter 8.2.0",
    "version": "2.0"
  },
  "bufferViews": [
    {
      "buffer": 0,
      "byteLength": 9598752,
      "target": 34963
    },
    {
      "buffer": 0,
      "byteLength": 4952400,
      "byteOffset": 9598752,
      "target": 34962
    },
    {
      "buffer": 0,
      "byteLength": 4952400,
      "byteOffset": 14551152,
      "target": 34962
    },
    {
      "buffer": 0,
      "byteLength": 6603200,
      "byteOffset": 19503552,
      "target": 34962
    },
    {
      "buffer": 0,
      "byteLength": 3301600,
      "byteOffset": 26106752,
      "target": 34962
    }
  ],
  "buffers": [
    {
      "byteLength": 29408352,
      "uri": "mothtea.bin"
    }
  ],
  "images": [
    {
      "uri": "lambert3SG_baseColor.png"
    },
    {
      "uri": "lambert3SG_occlusionRoughnessMetallic.png"
    },
    {
      "uri": "lambert3SG_normal.png"
    }
  ],
  "materials": [
    {
      "alphaMode": "OPAQUE",
      "name": "lambert3SG",
      "normalTexture": {
        "index": 2
      },
      "occlusionTexture": {
        "index": 1
      },
      "pbrMetallicRoughness": {
        "baseColorTexture": {
          "index": 0
        },
        "metallicRoughnessTexture": {
          "index": 1
        }
      }
    }
  ],
  "meshes": [
    {
      "name": "pCylinder7",
      "primitives": [
        {
          "attributes": {
            "NORMAL": 2,
            "POSITION": 1,
            "TANGENT": 3,
            "TEXCOORD_0": 4
          },
          "indices": 0,
          "material": 0,
          "mode": 4
        }
      ]
    }
  ],
  "nodes": [
    {
      "children": [
        1
      ],
      "name": "themoth.obj"
    },
    {
      "children": [
        2
      ],
      "name": "pCylinder7"
    },
    {
      "mesh": 0,
      "name": "pCylinder7"
    }
  ],
  "samplers": [
    {
      "magFilter": 9729,
      "minFilter": 9985,
      "wrapS": 10497,
      "wrapT": 10497
    }
  ],
  "scene": 0,
  "scenes": [
    {
      "name": "Scene",
      "nodes": [
        0
      ]
    }
  ],
  "textures": [
    {
      "sampler": 0,
      "source": 0
    },
    {
      "sampler": 0,
      "source": 1
    },
    {
      "sampler": 0,
      "source": 2
    }
  ]
}